<svg width="136" height="14" viewBox="0 0 136 14" fill="none" xmlns="http://www.w3.org/2000/svg">
<path d="M2.72 8.616L1.936 13H0.112L2.096 1.704H5.936C7.06667 1.704 7.91467 1.944 8.48 2.424C9.04533 2.904 9.328 3.56533 9.328 4.408C9.328 4.67467 9.30667 4.93067 9.264 5.176C9.072 6.24267 8.58133 7.08533 7.792 7.704C7.01333 8.312 5.98933 8.616 4.72 8.616H2.72ZM4.8 7.128C6.304 7.128 7.168 6.47733 7.392 5.176C7.424 4.99467 7.44 4.82933 7.44 4.68C7.44 4.2 7.28533 3.83733 6.976 3.592C6.66667 3.336 6.17067 3.208 5.488 3.208H3.664L2.976 7.128H4.8ZM13.7245 1.16L11.6445 13H9.80447L11.8845 1.16H13.7245ZM19.4016 4.072C20.1589 4.072 20.8096 4.21067 21.3536 4.488C21.8976 4.76533 22.3082 5.15467 22.5856 5.656C22.8736 6.14667 23.0176 6.70667 23.0176 7.336C23.0176 7.57067 22.9909 7.848 22.9376 8.168C22.8736 8.47733 22.8042 8.73867 22.7296 8.952H15.9456C15.9242 9.09067 15.9136 9.27733 15.9136 9.512C15.9136 10.2267 16.1002 10.76 16.4736 11.112C16.8576 11.4533 17.3589 11.624 17.9776 11.624C18.5856 11.624 19.1242 11.4693 19.5936 11.16C20.0736 10.8507 20.4096 10.44 20.6016 9.928H22.5536C22.2122 10.8773 21.6202 11.6453 20.7776 12.232C19.9349 12.8187 18.9429 13.112 17.8016 13.112C16.6922 13.112 15.8069 12.7973 15.1456 12.168C14.4842 11.5387 14.1536 10.6747 14.1536 9.576C14.1536 9.224 14.1856 8.86667 14.2496 8.504C14.4096 7.59733 14.7349 6.81333 15.2256 6.152C15.7162 5.48 16.3189 4.968 17.0336 4.616C17.7589 4.25333 18.5482 4.072 19.4016 4.072ZM21.1136 8.12C21.1669 7.90667 21.1936 7.672 21.1936 7.416C21.1936 6.79733 20.9962 6.328 20.6016 6.008C20.2176 5.688 19.7322 5.528 19.1456 5.528C18.4309 5.528 17.7909 5.74667 17.2256 6.184C16.6709 6.62133 16.3029 7.26667 16.1216 8.12H21.1136ZM29.0474 4.072C29.8687 4.072 30.5301 4.26933 31.0314 4.664C31.5434 5.05867 31.8581 5.58133 31.9754 6.232L32.3434 4.184H34.1674L32.5994 13H30.7754L31.1434 10.952C30.8021 11.6027 30.3114 12.1253 29.6714 12.52C29.0421 12.9147 28.3274 13.112 27.5274 13.112C26.5034 13.112 25.6981 12.8027 25.1114 12.184C24.5247 11.5653 24.2314 10.712 24.2314 9.624C24.2314 9.21867 24.2687 8.824 24.3434 8.44C24.5034 7.544 24.8074 6.77067 25.2554 6.12C25.7141 5.45867 26.2687 4.952 26.9194 4.6C27.5807 4.248 28.2901 4.072 29.0474 4.072ZM29.3994 5.672C28.5887 5.672 27.8901 5.93333 27.3034 6.456C26.7274 6.97867 26.3594 7.688 26.1994 8.584C26.1567 8.808 26.1354 9.048 26.1354 9.304C26.1354 9.99733 26.3327 10.536 26.7274 10.92C27.1221 11.304 27.6661 11.496 28.3594 11.496C29.1381 11.496 29.8261 11.2347 30.4234 10.712C31.0207 10.1787 31.3994 9.46933 31.5594 8.584C31.6021 8.37067 31.6234 8.14667 31.6234 7.912C31.6234 7.22933 31.4207 6.68533 31.0154 6.28C30.6101 5.87467 30.0714 5.672 29.3994 5.672ZM38.9446 4.072C40.0859 4.072 40.9553 4.33867 41.5526 4.872C42.1606 5.39467 42.4753 6.09867 42.4966 6.984H40.6886C40.6993 6.504 40.5393 6.12 40.2086 5.832C39.8886 5.53333 39.4139 5.384 38.7846 5.384C38.3046 5.384 37.9206 5.496 37.6326 5.72C37.3446 5.93333 37.2006 6.22667 37.2006 6.6C37.2006 6.84533 37.2859 7.05333 37.4566 7.224C37.6273 7.384 37.8353 7.512 38.0806 7.608C38.3366 7.704 38.6993 7.82133 39.1686 7.96C39.7659 8.12 40.2513 8.28533 40.6246 8.456C41.0086 8.616 41.3339 8.856 41.6006 9.176C41.8673 9.48533 42.0006 9.89067 42.0006 10.392C42.0006 10.5947 41.9793 10.7973 41.9366 11C41.8193 11.6293 41.4726 12.1413 40.8966 12.536C40.3206 12.92 39.5579 13.112 38.6086 13.112C37.4673 13.112 36.5606 12.856 35.8886 12.344C35.2273 11.832 34.8913 11.1173 34.8806 10.2H36.6886C36.6459 10.68 36.8059 11.0693 37.1686 11.368C37.5419 11.6667 38.0753 11.816 38.7686 11.816C39.2486 11.816 39.6166 11.6987 39.8726 11.464C40.1393 11.2293 40.2726 10.9307 40.2726 10.568C40.2726 10.2907 40.1819 10.0667 40.0006 9.896C39.8193 9.71467 39.5953 9.576 39.3286 9.48C39.0726 9.37333 38.7099 9.25067 38.2406 9.112C37.6539 8.94133 37.1793 8.78133 36.8166 8.632C36.4646 8.48267 36.1606 8.25867 35.9046 7.96C35.6593 7.66133 35.5366 7.272 35.5366 6.792C35.5366 6.62133 35.5526 6.43467 35.5846 6.232C35.7019 5.58133 36.0539 5.05867 36.6406 4.664C37.2273 4.26933 37.9953 4.072 38.9446 4.072ZM48.807 4.072C49.5643 4.072 50.215 4.21067 50.759 4.488C51.303 4.76533 51.7136 5.15467 51.991 5.656C52.279 6.14667 52.423 6.70667 52.423 7.336C52.423 7.57067 52.3963 7.848 52.343 8.168C52.279 8.47733 52.2096 8.73867 52.135 8.952H45.351C45.3296 9.09067 45.319 9.27733 45.319 9.512C45.319 10.2267 45.5056 10.76 45.879 11.112C46.263 11.4533 46.7643 11.624 47.383 11.624C47.991 11.624 48.5296 11.4693 48.999 11.16C49.479 10.8507 49.815 10.44 50.007 9.928H51.959C51.6176 10.8773 51.0256 11.6453 50.183 12.232C49.3403 12.8187 48.3483 13.112 47.207 13.112C46.0976 13.112 45.2123 12.7973 44.551 12.168C43.8896 11.5387 43.559 10.6747 43.559 9.576C43.559 9.224 43.591 8.86667 43.655 8.504C43.815 7.59733 44.1403 6.81333 44.631 6.152C45.1216 5.48 45.7243 4.968 46.439 4.616C47.1643 4.25333 47.9536 4.072 48.807 4.072ZM50.519 8.12C50.5723 7.90667 50.599 7.672 50.599 7.416C50.599 6.79733 50.4016 6.328 50.007 6.008C49.623 5.688 49.1376 5.528 48.551 5.528C47.8363 5.528 47.1963 5.74667 46.631 6.184C46.0763 6.62133 45.7083 7.26667 45.527 8.12H50.519ZM62.3119 4.072C63.1332 4.072 63.7946 4.26933 64.2959 4.664C64.8079 5.05867 65.1226 5.58133 65.2399 6.232L65.6079 4.184H67.4319L65.8639 13H64.0399L64.4079 10.952C64.0666 11.6027 63.5759 12.1253 62.9359 12.52C62.3066 12.9147 61.5919 13.112 60.7919 13.112C59.7679 13.112 58.9626 12.8027 58.3759 12.184C57.7892 11.5653 57.4959 10.712 57.4959 9.624C57.4959 9.21867 57.5332 8.824 57.6079 8.44C57.7679 7.544 58.0719 6.77067 58.5199 6.12C58.9786 5.45867 59.5332 4.952 60.1839 4.6C60.8452 4.248 61.5546 4.072 62.3119 4.072ZM62.6639 5.672C61.8532 5.672 61.1546 5.93333 60.5679 6.456C59.9919 6.97867 59.6239 7.688 59.4639 8.584C59.4212 8.808 59.3999 9.048 59.3999 9.304C59.3999 9.99733 59.5972 10.536 59.9919 10.92C60.3866 11.304 60.9306 11.496 61.6239 11.496C62.4026 11.496 63.0906 11.2347 63.6879 10.712C64.2852 10.1787 64.6639 9.46933 64.8239 8.584C64.8666 8.37067 64.8879 8.14667 64.8879 7.912C64.8879 7.22933 64.6852 6.68533 64.2799 6.28C63.8746 5.87467 63.3359 5.672 62.6639 5.672ZM78.7531 1.16L76.6571 13H74.8171L75.1851 10.952C74.8438 11.6027 74.3531 12.1253 73.7131 12.52C73.0838 12.9147 72.3691 13.112 71.5691 13.112C70.5771 13.112 69.7771 12.7973 69.1691 12.168C68.5718 11.5387 68.2731 10.6747 68.2731 9.576C68.2731 9.288 68.3104 8.90933 68.3851 8.44C68.5451 7.544 68.8491 6.77067 69.2971 6.12C69.7558 5.45867 70.3104 4.952 70.9611 4.6C71.6224 4.248 72.3318 4.072 73.0891 4.072C73.9104 4.072 74.5718 4.26933 75.0731 4.664C75.5851 5.05867 75.8998 5.58133 76.0171 6.232L76.9131 1.16H78.7531ZM73.4411 5.672C72.6304 5.672 71.9318 5.93333 71.3451 6.456C70.7691 6.97867 70.4011 7.688 70.2411 8.584C70.1984 8.808 70.1771 9.048 70.1771 9.304C70.1771 9.99733 70.3744 10.536 70.7691 10.92C71.1638 11.304 71.7078 11.496 72.4011 11.496C73.1904 11.496 73.8838 11.2347 74.4811 10.712C75.0784 10.1787 75.4571 9.46933 75.6171 8.584C75.6598 8.28533 75.6811 8.072 75.6811 7.944C75.6811 7.24 75.4784 6.68533 75.0731 6.28C74.6678 5.87467 74.1238 5.672 73.4411 5.672ZM89.6278 1.16L87.5318 13H85.6918L86.0598 10.952C85.7185 11.6027 85.2278 12.1253 84.5878 12.52C83.9585 12.9147 83.2438 13.112 82.4438 13.112C81.4518 13.112 80.6518 12.7973 80.0438 12.168C79.4465 11.5387 79.1478 10.6747 79.1478 9.576C79.1478 9.288 79.1852 8.90933 79.2598 8.44C79.4198 7.544 79.7238 6.77067 80.1718 6.12C80.6305 5.45867 81.1852 4.952 81.8358 4.6C82.4972 4.248 83.2065 4.072 83.9638 4.072C84.7852 4.072 85.4465 4.26933 85.9478 4.664C86.4598 5.05867 86.7745 5.58133 86.8918 6.232L87.7878 1.16H89.6278ZM84.3158 5.672C83.5052 5.672 82.8065 5.93333 82.2198 6.456C81.6438 6.97867 81.2758 7.688 81.1158 8.584C81.0732 8.808 81.0518 9.048 81.0518 9.304C81.0518 9.99733 81.2492 10.536 81.6438 10.92C82.0385 11.304 82.5825 11.496 83.2758 11.496C84.0652 11.496 84.7585 11.2347 85.3558 10.712C85.9532 10.1787 86.3318 9.46933 86.4918 8.584C86.5345 8.28533 86.5558 8.072 86.5558 7.944C86.5558 7.24 86.3532 6.68533 85.9478 6.28C85.5425 5.87467 84.9985 5.672 84.3158 5.672ZM98.8576 4.072C99.679 4.072 100.34 4.26933 100.842 4.664C101.354 5.05867 101.668 5.58133 101.786 6.232L102.154 4.184H103.978L102.41 13H100.586L100.954 10.952C100.612 11.6027 100.122 12.1253 99.4816 12.52C98.8523 12.9147 98.1376 13.112 97.3376 13.112C96.3136 13.112 95.5083 12.8027 94.9216 12.184C94.335 11.5653 94.0416 10.712 94.0416 9.624C94.0416 9.21867 94.079 8.824 94.1536 8.44C94.3136 7.544 94.6176 6.77067 95.0656 6.12C95.5243 5.45867 96.079 4.952 96.7296 4.6C97.391 4.248 98.1003 4.072 98.8576 4.072ZM99.2096 5.672C98.399 5.672 97.7003 5.93333 97.1136 6.456C96.5376 6.97867 96.1696 7.688 96.0096 8.584C95.967 8.808 95.9456 9.048 95.9456 9.304C95.9456 9.99733 96.143 10.536 96.5376 10.92C96.9323 11.304 97.4763 11.496 98.1696 11.496C98.9483 11.496 99.6363 11.2347 100.234 10.712C100.831 10.1787 101.21 9.46933 101.37 8.584C101.412 8.37067 101.434 8.14667 101.434 7.912C101.434 7.22933 101.231 6.68533 100.826 6.28C100.42 5.87467 99.8816 5.672 99.2096 5.672ZM112.518 1.16L110.438 13H108.598L110.678 1.16H112.518ZM114.403 1.8C114.403 1.45867 114.536 1.16533 114.803 0.919999C115.07 0.674666 115.4 0.551999 115.795 0.551999C116.104 0.551999 116.344 0.631999 116.515 0.792C116.696 0.952 116.787 1.16 116.787 1.416C116.787 1.77867 116.654 2.07733 116.387 2.312C116.131 2.54667 115.806 2.664 115.411 2.664C115.091 2.664 114.84 2.584 114.659 2.424C114.488 2.264 114.403 2.056 114.403 1.8ZM116.067 4.184L114.499 13H112.675L114.227 4.184H116.067ZM123.328 4.04C124.192 4.04 124.874 4.28533 125.376 4.776C125.877 5.256 126.128 5.94933 126.128 6.856C126.128 7.176 126.096 7.512 126.032 7.864L125.136 13H123.312L124.176 8.056C124.218 7.85333 124.24 7.64 124.24 7.416C124.24 6.81867 124.069 6.36533 123.728 6.056C123.397 5.736 122.933 5.576 122.336 5.576C121.61 5.576 120.992 5.81067 120.48 6.28C119.968 6.73867 119.632 7.416 119.472 8.312V8.264L118.64 13H116.8L118.352 4.184H120.192L119.856 6.136C120.197 5.464 120.672 4.94667 121.28 4.584C121.898 4.22133 122.581 4.04 123.328 4.04ZM131.33 8.504L134.402 13H132.226L129.778 9.032L129.074 13H127.234L129.314 1.16H131.154L129.986 7.848L133.73 4.184H135.938L131.33 8.504Z" fill="#F46363"/>
</svg>
